<?xml version="1.0" encoding="UTF-8"?>
<!-- Do not edit this file with editors other than draw.io -->
<!DOCTYPE svg PUBLIC "-//W3C//DTD SVG 1.1//EN" "http://www.w3.org/Graphics/SVG/1.1/DTD/svg11.dtd">
<svg xmlns="http://www.w3.org/2000/svg" style="background: transparent; background-color: transparent; color-scheme: light dark;" xmlns:xlink="http://www.w3.org/1999/xlink" version="1.1" width="240px" height="73px" viewBox="0 0 240 73">
<defs/>
<g>
<g data-cell-id="0">
<g data-cell-id="1">
<g data-cell-id="0E-r4-T002-JhojWjhB4-5">
<g transform="translate(0.5,0.5)">
<path d="M 60 36 L 163.63 36" fill="none" stroke="#000000" stroke-miterlimit="10" pointer-events="stroke" style="stroke: light-dark(rgb(0, 0, 0), rgb(255, 255, 255));"/>
<path d="M 168.88 36 L 161.88 39.5 L 163.63 36 L 161.88 32.5 Z" fill="#000000" stroke="#000000" stroke-miterlimit="10" pointer-events="all" style="fill: light-dark(rgb(0, 0, 0), rgb(255, 255, 255)); stroke: light-dark(rgb(0, 0, 0), rgb(255, 255, 255));"/>
</g>
</g>
<g data-cell-id="0E-r4-T002-JhojWjhB4-1">
<g transform="translate(0.5,0.5)">
<path d="M 50.99 50.83 Q 50.26 45.64 48.06 42.21 Q 45.87 38.78 41.89 38.24 Q 39.64 40.72 36.55 42.11 Q 33.45 43.5 30 43.5 Q 26.55 43.5 23.45 42.11 Q 20.36 40.72 18.11 38.24 Q 14.13 38.78 11.94 42.21 Q 9.74 45.64 9.01 50.83 Q 12.56 55.85 18.08 58.78 Q 23.6 61.71 30 61.71 Q 36.4 61.71 41.92 58.78 Q 47.44 55.85 50.99 50.83 Z M 42.86 27.43 Q 42.86 22.1 39.09 18.34 Q 35.32 14.57 30 14.57 Q 24.68 14.57 20.91 18.34 Q 17.14 22.1 17.14 27.43 Q 17.14 32.75 20.91 36.52 Q 24.68 40.29 30 40.29 Q 35.32 40.29 39.09 36.52 Q 42.86 32.75 42.86 27.43 Z M 60 36 Q 60 42.09 57.62 47.63 Q 55.25 53.18 51.24 57.21 Q 47.24 61.25 41.69 63.62 Q 36.13 66 30 66 Q 23.91 66 18.35 63.62 Q 12.79 61.25 8.77 57.23 Q 4.75 53.21 2.38 47.65 Q 0 42.09 0 36 Q 0 29.91 2.38 24.35 Q 4.75 18.79 8.77 14.77 Q 12.79 10.75 18.35 8.38 Q 23.91 6 30 6 Q 36.09 6 41.65 8.38 Q 47.21 10.75 51.23 14.77 Q 55.25 18.79 57.62 24.35 Q 60 29.91 60 36 Z" fill="#ff6a00" stroke="none" pointer-events="all" style="fill: rgb(255, 106, 0);"/>
</g>
</g>
<g data-cell-id="0E-r4-T002-JhojWjhB4-3">
<g transform="translate(0.5,0.5)">
<path d="M 204.51 72 C 184.21 72 170 55.24 170 38 L 170 34 C 170 15.29 185.72 0 204.63 0 C 225.26 0 239 17.35 239 34.08 L 239 37.62 C 239 56.92 223.05 72 204.51 72 Z" fill="#f58536" stroke="none" pointer-events="all" style="fill: rgb(245, 133, 54);"/>
<path d="M 170 34 C 170 55.21 187.06 69.15 204.48 69.15 C 223.1 69.15 239 54.36 239 34.08 L 239 37.62 C 239 56.92 223.19 72 204.51 72 C 184.22 72 170 55.21 170 38 Z" fill-opacity="0.3" fill="#000000" stroke="none" pointer-events="all" style="fill: rgb(0, 0, 0);"/>
<rect x="170" y="0" width="0" height="0" fill="none" stroke="#000000" pointer-events="all" style="stroke: light-dark(rgb(0, 0, 0), rgb(255, 255, 255));"/>
<path d="M 215.53 21.91 L 215.53 10.7 L 226.7 10.7 L 226.7 21.91 Z M 215.53 40.18 L 215.53 28.97 L 226.7 28.97 L 226.7 40.18 Z M 215.53 58.47 L 215.53 47.26 L 226.7 47.26 L 226.7 58.47 Z M 175.49 44.68 L 175.49 24.48 L 188.03 24.48 L 188.03 32.58 L 208.09 19.71 L 206.81 17.73 L 215.53 16.71 L 211.05 24.29 L 209.69 22.2 L 192.69 33.11 L 207.65 33.11 L 207.65 30.64 L 215.53 34.53 L 207.65 38.44 L 207.65 36.06 L 192.7 36.06 L 209.69 46.98 L 211.05 44.88 L 215.53 52.44 L 206.79 51.44 L 208.07 49.45 L 188.03 36.58 L 188.03 44.68 Z" fill="#ffffff" stroke="none" pointer-events="all" style="fill: rgb(255, 255, 255);"/>
</g>
</g>
</g>
</g>
</g>
</svg>